<svg version="1" xmlns="http://www.w3.org/2000/svg" width="933.333" height="933.333" viewBox="0 0 700.000000 700.000000"><path d="M300.5 6.7c-25.8 3.4-57.1 11.9-82.7 22.4C108.2 74.2 28.4 172.9 8 288.8c-4.1 23.3-4.5 29.2-4.5 61.7.1 34.2.9 43.5 6.1 69.2 23.6 116.4 106.8 213.8 218.6 255.7 44.3 16.6 89.4 23.6 138.6 21.4 123.4-5.3 235.9-77.9 292.6-188.8 17.9-34.9 29.4-71.9 35.2-113 2.3-15.9 2.7-71.1.6-86-3-21.5-7.3-41.8-12-57.5-1.4-4.5-2-5.5-2.5-4-.3 1.1-13.1 55-28.3 119.7L624.6 485h-82.5l-.9-3.2c-.5-1.8-11.9-49.3-25.3-105.5s-24.7-101.9-25-101.5c-.3.4-11.5 47-24.8 103.7-13.3 56.6-24.5 103.8-24.7 104.7-.5 1.7-3.4 1.8-41.9 1.8h-41.3l-3.1-12.7C342.2 418.8 292 207.5 292 206.8c0-.4 15.3-.8 34-.8h34l.9 2.2c.4 1.3 11.3 46.7 24.1 101.1 12.9 54.3 23.7 98.4 24.1 98 .4-.5 10.9-44.2 23.3-97.3 12.5-53.1 23.2-98.3 23.7-100.4l1.1-3.9 34.1.7c18.8.5 34.4 1.2 34.7 1.7.3.5 11.1 45.6 24 100.4 12.9 54.7 23.6 99.5 24 99.5.3 0 9.2-36.8 19.9-81.8 10.6-44.9 21.3-90.1 23.8-100.5l4.5-18.7h43.9l-.7-2.3c-2.1-6.7-15.3-30.5-25.7-46.2C592.2 86.9 520 35.5 436.6 14c-12.6-3.2-30.8-6.6-40.8-7.6l-6.7-.7-1.1 4.4c-2.9 10.9-11.3 20.8-21.8 25.7-5 2.4-6.9 2.7-16.2 2.7-9.3 0-11.2-.3-16.2-2.7-10.4-4.9-18.9-14.8-21.7-25.6-1.1-4-1.3-4.2-4.9-4.1-2 .1-5 .4-6.7.6zM198.4 209.4c38.8 7.6 58.5 24.2 64.8 54.3 1.6 8 1.9 12.2 1.5 22.8-.3 7.3-1.2 15.6-2.1 19-3.9 14.4-12.4 27.3-23.1 35.4-5.4 4.1-22.9 13.1-25.4 13.1-2.6 0-.7 1.7 3.8 3.3 11.7 4.1 21.9 13.3 32.3 29.1 4.5 6.8 49.8 96.2 49.8 98.2 0 .2-17 .4-37.9.4h-37.9l-19.6-39.6c-23.6-47.7-28.1-54.5-39.9-60.5-7.5-3.9-13.5-4.9-28.9-4.9H121v105H49V206.9l70.3.4c61.8.3 71.3.5 79.1 2.1z"/><path d="M121 293.9v36.3l23.3-.4c18.3-.4 24.3-.8 28.4-2.1 7.6-2.5 13.3-7.3 16.8-14.1 2.6-5.2 3-7.1 3.3-16.4.9-22.3-6.4-33.1-24.8-37.2-3-.6-14.8-1.4-26.2-1.7l-20.8-.6v36.2z"/></svg>