<svg version="1" xmlns="http://www.w3.org/2000/svg" width="1365.333" height="1365.333" viewBox="0 0 1024.000000 1024.000000"><path d="M245 294.1c-2.5.4-6.1.9-8.1 1.3-10.1 1.6-33 11.8-48.9 21.8-24.3 15.2-54.5 42.3-76.5 68.6-1.5 1.8-3.3 3.1-3.9 2.9-.8-.3-1.1-12.1-1.3-41.8 0-22.8-.2-42.3-.2-43.4-.1-2-.8-2-47.3-1.9-32.6.1-49.1.5-53.1 1.3L0 304.1V343h43.8V690.7l-16.7.2c-17.4.2-18.6.3-23.9 1.5l-3.2.8V732h169.9l2.7-2.3c3.5-3 4.1-10.4 1.4-16.6-3.4-7.4-9.4-10.1-37.5-16.4-6-1.4-14.5-3.3-18.8-4.2l-7.7-1.8v-8.6c0-4.7-.2-61.9-.3-127.1l-.2-118.5 7-6.4c26.5-24.4 55.4-43.6 82-54.6 18.9-7.9 37-12.9 54-15.1 2.2-.3 5.1-.7 6.5-.9 1.4-.3 7.5-.8 13.6-1.1l11.1-.7 3.1-4.6c8.5-12.5 10.1-33.2 3.4-44-4.6-7.5-11.2-12.2-20.4-14.7-5.2-1.3-17.6-1.5-24.8-.3zM336.5 302.1c-9.4.9-16.2 3.7-21.4 8.7-4.8 4.6-5.8 19.3-2 26.3 3 5.2 6.3 5.9 28.6 5.9h18.9l6.3 20.7c15.8 52 23.4 77.1 24.6 81.3.7 2.5 2.9 9.8 4.9 16.2 2 6.5 5.2 17.1 7.2 23.5 2 6.5 4.2 13.8 4.9 16.3.7 2.5 5.2 17.3 10 33s11.6 38.2 15.2 50c3.5 11.8 7.4 24.4 8.5 28 1.1 3.6 3.2 10.8 4.8 16 1.5 5.2 5.7 18.9 9.2 30.5 3.5 11.5 10 32.8 14.4 47.2l7.9 26.3h88.1l6.7-23.8c3.7-13 10.2-35.6 14.3-50.2 4.2-14.6 7.8-27.4 8.1-28.5.3-1.1 1.1-4 1.8-6.5 2.9-9.7 5.6-19.3 10.9-38 3-10.7 10.5-37.1 16.6-58.5 6.2-21.5 11.3-39.7 11.5-40.5.3-1.2 15.6-54.9 24.2-85 2.4-8.6 4.1-16.2 4.8-21.6.4-2.7.8-5.6 1-6.4.4-1.5 1.7-15.8 1.9-21.2.1-3.2 2-5.6 3-3.9.4.6.9 3.4 1.2 6.3.5 5.6 3.1 25.9 3.8 29.3 2.6 13.1 4.2 19.7 7.1 29 1.8 6 5.2 17.3 7.5 25 2.3 7.7 5.3 17.6 6.7 22 1.4 4.4 2.6 8.7 2.8 9.5.2.8 2 6.9 4 13.5s5 16.5 6.7 22c1.6 5.5 3.6 12.1 4.4 14.7.8 2.7 2 6.9 2.8 9.5 4.3 14.7 40.2 134 42.1 139.8.7 2.2 5.2 17.4 10.1 33.7l8.8 29.8h88.4l1.5-5.8c.8-3.1 2.2-8.2 3.1-11.2.9-3 1.8-6.2 2-7 .2-.8 1.6-5.6 3.1-10.5 1.4-5 2.8-9.7 3-10.5.4-1.7 11.2-39.2 18.2-63 2.5-8.5 4.9-16.9 5.3-18.5.8-3.3 4.9-17.3 22-76.5 6.1-21.2 11.3-39.2 11.5-40 .2-.8 3.6-12.5 7.5-26s9.7-33.7 12.9-45c3.3-11.3 7.1-24.6 8.5-29.5 1.5-5 3.4-11.5 4.2-14.5.9-3 2-6.6 2.4-8 .5-1.4 1.4-4.5 2-7 3.8-14.9 3.6-14.7 9.3-16.4 12.2-3.7 33.3-9.8 34.2-10 5.7-1.2 5.5-.6 5.5-16.2 0-10.8-.3-14.4-1.2-14.5-.7 0-32.1-.1-69.8-.1-61.9-.1-69.1.1-74.4 1.6-12.9 3.8-17.8 10-18 22.6 0 6 2 11.4 5.5 14.6 2 1.8 4 1.9 33.1 2.2l30.9.3-.7 2.2c-1 3.1-22.3 79.1-23.8 85.2-.8 2.7-6.8 24.6-13.5 48.5s-16.7 59.7-22.2 79.4c-5.5 19.8-10.2 36.2-10.4 36.6-.2.4-.6 1.8-.8 3.1-.3 1.4-1.5 5.8-2.7 9.8-1.2 4.1-2.3 8.1-2.5 9-.2.9-1.2 4.7-2.3 8.6-10 34-14.2 51.4-15.7 65.5-.8 7.3-1.1 8.1-3 7.4-.9-.4-1.5-1.9-1.5-3.9 0-1.8-.4-5.5-1-8.3-.5-2.8-1.2-7.2-1.6-9.8-.7-5.7-4.5-19.6-11.4-41.9-2.8-9.4-6.9-22.6-9-29.5-13.7-44.6-22.4-73.3-24-78.5-2.8-9.2-12.1-39.7-18.8-61.5-3.3-10.7-6.7-21.8-7.5-24.5-.9-2.8-3.4-11.1-5.7-18.5-2.3-7.4-4.5-14.9-5-16.5-.4-1.7-2.9-9.8-5.5-18-2.5-8.3-6-19.5-7.7-25-1.6-5.5-3.8-12.7-4.9-16-1-3.3-4.3-14.3-7.5-24.5-3.1-10.2-6-18.9-6.5-19.4-.8-.9-73.5-1.3-74.3-.5-.4.4-45 155.7-48.3 167.9-.8 3-2.8 10-4.5 15.5-1.6 5.5-3.1 10.9-3.4 12-.2 1.1-1.3 4.9-2.4 8.5-2.4 7.8-29 100.8-29.5 103.1-.3 1.7-8.3 29.5-11.4 39.9-2 6.6-3.9 13.8-4.7 17.5-1.9 8.7-4.5 23.7-4.6 26.7-.3 8.4-3.7 7.4-4.5-1.4-.8-10-3.2-21.7-6.8-33.9-2-6.7-3.8-12.9-4-13.8-.2-.9-2.9-9.8-5.9-19.8-3.1-10-6.7-21.9-8-26.5-2.7-9.2-8.4-28.1-12.1-40.3-4.7-15.4-38.7-129.1-42.5-142-2.1-7.2-6.6-22.2-10-33.5-10.4-34.5-11-36.5-11-37.2 0-.9 3.9-1.9 20.5-5.3 7.2-1.5 13.8-2.9 14.8-3.1.9-.2 2.5-.6 3.5-.8.9-.2 5.3-1.1 9.7-2.1 10.7-2.2 18.2-6 21.7-11 4.7-6.8 4-16.7-1.3-19.6-1.8-.9-20.3-1.2-77.9-1.3-41.5-.1-78.2.2-81.5.5z"/></svg>